<svg id="Image_1" data-name="Image 1" xmlns="http://www.w3.org/2000/svg" viewBox="0 0 345 690"><defs><style>.cls-1{fill:#fff;}.cls-2{fill:#2bfffe;}</style></defs><rect width="345" height="690"/><g id="Logo_Homyno" data-name="Logo Homyno"><path class="cls-1" d="M179.24,278.1a8,8,0,0,1-4.74,5.95l-3.34-4-3.36,4a8,8,0,0,1-4.71-6c-.89-4.6-5.48-13.61-8.05-12.44,0,0,3.94,1.93,4.4,12.37s4.29,9.7,4.58,13.5-.14,7.14-1,9.06-1,1.24,1.11,3.73,2.58,4.17,1.56,5.54-1,1.42,2,6a48,48,0,0,1,3.4,5.66,47.07,47.07,0,0,1,3.42-5.65c3-4.59,3.06-4.65,2-6s-.53-3,1.59-5.53,2-1.79,1.12-3.72-1.3-5.29-1-9.08,4.13-3,4.63-13.47,4.45-12.35,4.45-12.35C184.77,264.5,180.15,273.5,179.24,278.1Z"/><path class="cls-1" d="M176.08,307.83s1.53-1.8,2,0,2.71,13.24-5,22.92-31.46,29.67-2.15,54.83c0,0,18.06-17.52,11.29-28.55s-.46-18.48,4.53-29.48-1.11-23.86-1.11-23.86a15.45,15.45,0,0,1,2,.75c-1.07-3.9-4.55-5.07-4.22-5.81s3.32,0,3.32,0c-.91-3.07-4.74-3.33-4.74-3.33-.93-3.56,3.1-4.88,3.1-4.88-2.07-1.91-5.22.16-5.88,0s0-3.31,0-3.31l-3.42,1.23"/><path class="cls-2" d="M165.33,296.89a9.69,9.69,0,0,0,1.8,3,3.68,3.68,0,0,1,1.05,2.39v.13a4.5,4.5,0,0,0-1.23-1.59A5.77,5.77,0,0,1,165.33,296.89Z"/><path class="cls-2" d="M176.72,296.92a9.79,9.79,0,0,1-1.81,3,3.62,3.62,0,0,0-1.06,2.38v.13a4.67,4.67,0,0,1,1.23-1.58A5.82,5.82,0,0,0,176.72,296.92Z"/><path d="M205.7,305a.46.46,0,0,0-.11-.07Z"/><path class="cls-1" d="M223.13,326.46a6.29,6.29,0,0,0-4.19-4.48,7.28,7.28,0,0,0-.51-5.22s-1.88-.31.77-3.6,3.1-6.33,1.62-9.44a7.55,7.55,0,0,1-1.69,4.47c-1.81,2.48-6,5.95-7.66,6.57,0,0-3.23.67-3.54-1.25s1.16-6.42-2.23-8.51c.34.27,1.24,1.52-.12,6.7-1.63,6.21-.14,4.85-.51,7.08s-1.75,2.61-2,3.6.68,2.61.67,4.85a12.86,12.86,0,0,1-1.33,5.24c-.62,1.61-.49,2.89,1.25,6.87,0,0,3.73-3.22,5.53-4a8.27,8.27,0,0,1,0-1.8c.11-.34,1-1.42,3.18-2.31l-.2.55c0,4.88-2.58,5.88-12.28,11.33A85.4,85.4,0,0,0,182.23,357l-1.52,13.91,9.85,0s15.43-8.33,15.19-12,3-9.19,8.06-13.24A18.13,18.13,0,0,0,220,334.17,4.48,4.48,0,0,1,221.6,337a6.47,6.47,0,0,0,0-4.81,12.52,12.52,0,0,0-1.33-2.23c0-.64-.07-1.28-.14-1.91a16.3,16.3,0,0,0-.6-3C220.85,324.52,223.13,326.46,223.13,326.46Zm-11.86-1.93a4,4,0,0,0-1.85,1.86,4.84,4.84,0,0,1,2.55-3.27s.94-.61,1.13-1.21a.89.89,0,0,0,0-.11v0a.43.43,0,0,1,0,.11A4.27,4.27,0,0,1,211.27,324.53Z"/><path class="cls-1" d="M227.41,300.38c-.61-5.6,0-4.4-2-6.74s-5.33-4.46-2.22-4.33c0,0,1.61,0,.62-1.49,0,0-3.85-2.12-5.21-5.73s.63-1.36-1.36-3.6-7.7-4.37-11.54-8.23-4.58-7.8-4.21-4.65,3.59,7,7.68,9.38,3.6,5,.74,4-4.72-1.75-7-1.76a7.34,7.34,0,0,1,1.86,2,13.08,13.08,0,0,1-6.22.23s-2.61-.5-3.6,1.61c0,0,2.73-.12,3.23,1a21,21,0,0,0-9.48,15.26c-1.49,10.88,1.23,15.52,1.82,20.39.51,4.13-.48,10.45-5.1,16.91-3.67,5.12-7.43,10.86-3.1,20.81,0,0,8.78-9,16.13-12.59,0,0,6.59-14.17.53-28.6s.42-26,8.38-26.44c0,0-1.62,2-1.62,3.47,0,0,4.6-2.1,8.32.27a21.88,21.88,0,0,1,5.33,4.48,1.86,1.86,0,0,0-1.61,1.12c-.5,1.11,1.37-1.62,6,3S228,306,227.41,300.38Zm-9-12.21a4.22,4.22,0,0,1-1.84-2.63.35.35,0,0,1,0-.11v0a1,1,0,0,0,0,.11c.18.6,1.14,1.21,1.14,1.21a4.85,4.85,0,0,1,2.57,3.29A4,4,0,0,0,218.37,288.17Z"/><path d="M136.8,304.86a.32.32,0,0,1,.11-.07Z"/><path class="cls-1" d="M122.88,324.82a17,17,0,0,0-.62,3c-.07.63-.12,1.26-.14,1.9a12.65,12.65,0,0,0-1.34,2.24,6.45,6.45,0,0,0,0,4.8,4.49,4.49,0,0,1,1.59-2.81,18.19,18.19,0,0,0,6.16,11.61c5,4.07,8.27,9.62,8,13.27s15.13,12,15.13,12l9.86,0L160.06,357a85.9,85.9,0,0,0-17.62-14c-9.68-5.49-12.24-6.5-12.23-11.38l-.2-.55c2.21.9,3.06,2,3.18,2.32a8.66,8.66,0,0,1,0,1.8c1.8.75,5.52,4,5.52,4,1.75-4,1.89-5.26,1.27-6.87a12.91,12.91,0,0,1-1.3-5.25c0-2.23.94-3.85.69-4.84s-1.61-1.37-2-3.61,1.12-.87-.48-7.08c-1.34-5.19-.44-6.43-.1-6.7-3.4,2.07-2,6.59-2.27,8.5s-3.54,1.23-3.54,1.23c-1.68-.62-5.83-4.11-7.63-6.6a7.55,7.55,0,0,1-1.67-4.48c-1.5,3.11-1.07,6.15,1.57,9.45s.77,3.6.77,3.6a7.25,7.25,0,0,0-.54,5.23,6.28,6.28,0,0,0-4.21,4.46S121.57,324.31,122.88,324.82Zm6.45-3.08s0-.08,0-.11v0a0,0,0,0,1,0,0,.75.75,0,0,1,0,.11c.19.6,1.13,1.21,1.13,1.21a4.8,4.8,0,0,1,2.53,3.28,4,4,0,0,0-1.84-1.87A4.28,4.28,0,0,1,129.33,321.74Z"/><path class="cls-1" d="M164.4,339.44c-3.14-3.23-7-5.15-9.35-7.63-4-4.25-4.07-10.23-3.32-14.33s3.36-9.5,1.91-20.38a21,21,0,0,0-9.41-15.3c.5-1.12,3.23-1,3.23-1-1-2.11-3.6-1.62-3.6-1.62a13.05,13.05,0,0,1-6.21-.26,7.25,7.25,0,0,1,1.86-2c-2.23,0-4.1.74-7,1.73s-3.35-1.62.76-4,7.34-6.19,7.72-9.34-.38.79-4.23,4.63-9.59,5.94-11.58,8.18,0,0-1.37,3.6-5.23,5.7-5.23,5.7c-1,1.49.62,1.5.62,1.5,3.1-.12-.26,2-2.25,4.32s-1.37,1.14-2,6.73-1,4.34,3.6-.25,6.47-1.85,6-3a1.87,1.87,0,0,0-1.61-1.12,21.75,21.75,0,0,1,5.35-4.46c3.73-2.35,8.33-.23,8.33-.23,0-1.49-1.61-3.48-1.61-3.48,7.95.51,14.39,12.08,8.27,26.48s.81,28.95.81,28.95c5.2,2.83,13,9.39,13,9.39s1.16-2.94,2.74-6.25A33.14,33.14,0,0,1,164.4,339.44ZM122.19,289.7a4.88,4.88,0,0,1,2.59-3.28s1-.6,1.15-1.2a.53.53,0,0,1,0-.11v0l0,.11a4.28,4.28,0,0,1-1.85,2.62A4,4,0,0,0,122.19,289.7Zm21.91,53.23c5.2,2.83,13,9.39,13,9.39A66.76,66.76,0,0,1,159.7,346"/><path class="cls-1" d="M170.94,385.58s8.71-6.4,12.45-11.11c0,0,0,3.77-5.49,11.13s-5.36,9.72-6,12.7c0,0,8.35-13,26.76-23.8,0,0,9.83-5.57,17-21.21,0,0-9.78,3.95-13.72,3.94S171,359.32,170.94,385.58Z"/><path class="cls-1" d="M170.94,385.58s-8.68-6.43-12.4-11.16c0,0,0,3.77,5.44,11.15s5.33,9.74,5.94,12.73c0,0-8.3-13.07-26.66-23.92,0,0-9.81-5.61-16.86-21.28,0,0,9.77,4,13.7,4S171,359.32,170.94,385.58Z"/><path class="cls-1" d="M206,356.54s10.4-4.27,12.86-7.15c0,0,4.37-2.76,4.8-3.93,0,0,1.39.64-4,7a4,4,0,0,1-1.07,4.94c-1.22,1.06-6.95,9.79-8.66,12.45s-18.39,10.61-20.23,12.32-11.22,8.11-11.22,8.11Z"/><path class="cls-1" d="M136,356.39s-10.39-4.31-12.84-7.19c0,0-4.36-2.79-4.78-4,0,0-1.39.64,3.92,7a4,4,0,0,0,1.06,4.94c1.21,1.06,6.91,9.82,8.61,12.49s18.35,10.68,20.17,12.4,11.19,8.16,11.19,8.16Z"/><path class="cls-1" d="M216.33,343.17a9.79,9.79,0,0,1-.7,4.72s-.57-2.34-1.74-3.2-2.25,4.69-3.53,6.92c0,0,.33-.65-.39-2.12-.85-1.73,0-7,0-7"/><path class="cls-1" d="M125.78,342.67a11.07,11.07,0,0,0,.72,5s.58-2.33,1.76-3.18,2.22,4.69,3.5,6.93c0,0-.38-.54.4-2.12s0-7,0-7"/><path class="cls-2" d="M180,312.61c.38,4.7.1,11.7-5.05,18.14-6.72,8.42-25.54,24.64-11,45.28-.22-.34-.42-.68-.61-1-3.53-5.58-3.94-10.39-2.54-14.68.9-2.74,2.89-5.1,4.13-7.87,1.45-3.24,2.09-6,3.46-9.61,1.93-5.11,5.46-9.34,7.66-12.1a19.85,19.85,0,0,0,4.25-12.14A51.69,51.69,0,0,0,180,312.61Z"/><path class="cls-1" d="M122.18,424.61q1.89,0,1.89-2v-4.47h-8.43v4.56q0,1.89,2,1.89h.4v1h-8.13v-1h.4a1.67,1.67,0,0,0,1.88-1.89V412.61c0-1.19-.63-1.78-1.88-1.78h-.4v-1H118v1h-.4c-1.39-.07-2.05.53-2,1.78v4.07h8.43v-4c.06-1.32-.63-1.95-2.08-1.88h-.2v-1h8.13v1h-.5c-1.32-.07-1.95.53-1.88,1.78v10.11c-.07,1.33.59,1.95,2,1.89h.4v1h-8.13v-1Z"/><path class="cls-1" d="M141.42,409.34q8.63.5,9.12,8-.6,8.13-9.62,8.43-8.52-.41-9.22-7.83Q132.3,409.84,141.42,409.34Zm.1,15.57q4.95-.21,5.25-6.55-.39-7.53-6-7.93c-3.37.2-5.15,2.31-5.35,6.35Q135.77,424.42,141.52,424.91Z"/><path class="cls-1" d="M156.49,413.11l-.6,9q-.09,1.59.3,2c.26.33.86.5,1.79.5v1h-5.66v-1a2.31,2.31,0,0,0,1.79-.5,3.63,3.63,0,0,0,.4-2.18l.59-9.22a2.36,2.36,0,0,0-.3-1.49,2.69,2.69,0,0,0-1.48-.39v-1h5.35l5,10.6,4.76-10.6h5.45v1c-1,0-1.56.1-1.69.29s-.23.73-.1,1.59l.6,9.42c0,1.12.13,1.78.4,2s.79.43,1.78.5v1H166.9v-1h.39c1.39.13,2.05-.43,2-1.69a8.07,8.07,0,0,0-.1-1.19l-.6-9-5.65,12.89h-.69Z"/><path class="cls-1" d="M187,422.72c-.13,1.33.6,1.95,2.19,1.89h.39v1h-8.72v-1h.69c1.32,0,2-.6,1.89-1.79v-3.57L178,412a2.68,2.68,0,0,0-.89-1,3.27,3.27,0,0,0-1.39-.2h-.2v-1h8.33v1h-.39a1.75,1.75,0,0,0-1.19.29c-.2.27-.17.6.1,1l4.06,5.35,3-4.66c.4-.66.53-1.16.4-1.49s-.66-.49-1.39-.49h-.29v-1h6v1a4.89,4.89,0,0,0-1.68.39,4.41,4.41,0,0,0-1.19,1.39L187,419.25Z"/><path class="cls-1" d="M198.62,422.53c-.13,1.52.7,2.21,2.48,2.08v1H195v-1h.19c1.33,0,1.95-.53,1.89-1.59v-11.7a3.68,3.68,0,0,0-2-.49v-1h5.15l10.41,10.8V413a2.68,2.68,0,0,0-.4-1.79,3.16,3.16,0,0,0-2-.39h-.3v-1h6.55v1h-.3c-1.45-.07-2.15.36-2.08,1.29V425.6h-1.39L198.62,413Z"/><path class="cls-1" d="M226,409.34q8.63.5,9.12,8-.6,8.13-9.62,8.43-8.52-.41-9.22-7.83Q216.87,409.84,226,409.34Zm.1,15.57q4.95-.21,5.25-6.55-.39-7.53-6-7.93c-3.37.2-5.15,2.31-5.35,6.35Q220.34,424.42,226.09,424.91Z"/></g></svg>