<svg id="Image_1" data-name="Image 1" xmlns="http://www.w3.org/2000/svg" viewBox="0 0 345 345"><defs><style>.cls-1{fill:#fff;}.cls-2{fill:#0f1fb1;}</style></defs><g id="Calque_3" data-name="Calque 3"><rect class="cls-1" width="345" height="345"/></g><path class="cls-2" d="M223.73,166.13l.22-3.24c3.32,2.2,4.27,5.74,5.88,8.8,2.31,4.36,3.66,5,8.37,3.89a24.32,24.32,0,0,1,10.3-.19c2.17.41,3.13,1.38,2.86,3.59-.1.87.11,1.78.06,2.66-.08,1.54.05,2.21,2.11,2,8.43-.78,8.38-.66,8.47,7.56.05,4.77-.26,9.57.52,14.3.39,2.36-.58,2.74-2.69,2.74q-86.68-.12-173.38-.08c-3.27,0-4.14-1-4-4.2q.42-15.48.31-31c0-2.54.85-3.36,3.22-3.9,21.75-4.9,43.47-9.94,65.2-14.93,1-.23,2-.42,2.92-.63,6.19-5.06,12.81-4.48,19.63-1.52.69.3,1.38.8,2.1.07a7.54,7.54,0,0,0,.38-.75c-1.81-3.43-5.15-4.24-8.54-4.9a12.69,12.69,0,0,0-4,.06c1.76.24,3.57,0,5.28.4s3.79.7,4.8,2.65a1.16,1.16,0,0,1-.88,1.08,3.23,3.23,0,0,1-2-.14c-6.26-2.43-11.84-1.32-16.81,3.11-.14-4.5,1.58-7.19,5.73-8.62a18.24,18.24,0,0,1,16.08,1.54,6,6,0,0,0,5.62.67,41.21,41.21,0,0,1,4.54-1.12,11.63,11.63,0,0,0,6.89-4c5.55-6.63,20.67-7,27.08-1.19,2,1.79,2.14,4,2.25,6.35.19,3.88.27,7.77.39,11.65.14,5.78,1.22,11.5,1.06,17.3.29.42.62-.22.24,0-.14.09-.24,0-.25-.22A49.47,49.47,0,0,1,223.73,166.13Z"/><path class="cls-1" d="M223.73,166.13v9.93c-.39-5.75-1.62-11.44-1.14-17.22C224.05,161.1,222.29,163.86,223.73,166.13Z"/><path class="cls-1" d="M187,197.78c-.45-5.94.47-7,7-7,3.8,0,7.61-.08,11.41,0,3.64.11,4.58,1.3,4.75,4.91.17,3.77.28,7.62-2.37,10.56-1.21,1.34-4.1,1.14-5.21.2-2.45-2.06-5-1.28-7.6-1.48-1.11-.08-2.24,0-3.35,0-3.75-.14-4.63-1.06-4.64-4.87C187,199.33,187,198.55,187,197.78Z"/><path class="cls-1" d="M117.09,204.88c-5.92.3-5.92.3-5.92-5.51,0-8.59,0-8.6,8.63-8.59,3.12,0,6.25-.05,9.37.1,1.44.07,3.19.57,3.31,2.21.15,2,1.29,4.64-1,5.78-2.58,1.26-2,2.19-.51,3.67a17.43,17.43,0,0,1,1.58,2.17c-3.26.39-6.22,1.08-8.31-2.21a13.93,13.93,0,0,0-2.36-2.3c-1.3-.88-4.36.7-3.94-2.57.37-2.9,2.87-2.11,4.72-2.35a2.23,2.23,0,0,1,1,.05c-5.33-.36-5.25-.35-6,4.7C117.33,201.65,117.89,203.33,117.09,204.88Z"/><path class="cls-1" d="M161,204.85c-2.44-.15-4.83,1-7.16-1.08-1.34-1.18-3.45-.26-5.2-.48s-3.82.72-5.31-.86c-.53-.55-.7-.26-.86.07-1.66,3.53-4.78,2.33-8.42,2.46,3.39-4.56,5.25-9.5,9.33-12.75,3.76-3,8.94-1.79,11.48,2.22q3,4.77,6,9.56C161,204.15,160.94,204.4,161,204.85Z"/><path class="cls-1" d="M93.6,204.88c-5.92.3-5.92.3-5.92-5.47,0-8.64,0-8.64,8.53-8.64,2.78,0,5.56,0,8.34,0,2,0,4.32.23,4.77,2.65s.85,5-2.28,6.16c-3.53.59-7.09.13-10.63.27-1.17,0-1.94-.39-2-1.64a2.19,2.19,0,0,1,1.5-2.62,12.43,12.43,0,0,1,4-.34c.17-.14.08-.11-.27-.11-4.87.09-4.79.1-5.49,4.84C93.84,201.63,94.4,203.33,93.6,204.88Z"/><path class="cls-1" d="M185.47,197.89a22,22,0,0,0,0,3.63c.55,3.17-1,3.65-3.74,3.54-2-.08-2.43-.79-2.37-2.56a83.94,83.94,0,0,0,0-9.25c-.19-2.61,1.3-2.5,3.08-2.5s3.38-.09,3.06,2.51A35.74,35.74,0,0,0,185.47,197.89Z"/><path class="cls-1" d="M242,196.34l12-.12c.6,3.62.6,3.63-2.78,3.65-2.23,0-4.46,0-6.68,0C241.39,199.84,241.4,199.83,242,196.34Z"/><path class="cls-2" d="M93.6,204.88c0-1.33-.06-2.66.06-4,.2-2.05-1-4.82.62-6,2.14-1.49,5.17-.42,7.82-.52a1.09,1.09,0,0,1,1.22.9c.11,1-.72.94-1.36.95-1.78,0-3.56.06-5.34,0-1.25,0-1.83.41-1.8,1.72s.68,1.72,1.88,1.71c3.44-.05,6.89-.06,10.34-.09-2.82,1.44-5.84.56-8.75.59-2.67,0-4.62.23-4.07,3.62C94.27,204.13,93.82,204.52,93.6,204.88Z"/><path class="cls-2" d="M117.09,204.88c0-1.76-.07-3.54.08-5.3s-1-4.13.81-4.85c2.4-1,5.24-.45,7.89-.2.45,0,.69.5.64,1s-.5.68-1,.69c-1.56,0-3.11,0-4.67.06-1.12,0-2.54-.46-2.6,1.56-.06,1.83,1,1.87,2.36,1.9a3.75,3.75,0,0,1,1.18.46C117.61,199.12,118,202.68,117.09,204.88Z"/><path class="cls-1" d="M222.7,205c-2.24,0-4.48.09-6.71,0-2.58-.13-4.16-1.28-4-4.18.13-2.66.11-5.33,0-8-.09-2.36,1.53-2,2.93-2s3.42-.78,3.3,1.92c0,.66,0,1.33,0,2,0,6.85,0,6.79,6.91,6.45,1.73-.09,2.45-.62,2.33-2.35-.09-1.32,0-2.66,0-4,0-4.19.5-4.56,4.54-4.08,1.35.16,1.69.75,1.68,1.92,0,3,0,6,0,9-.05,2.45-1.85,3.15-3.87,3.27C227.4,205.06,225.05,205,222.7,205Z"/><path class="cls-1" d="M255.38,201.49c.66,2.76-.38,3.72-3.25,3.56-4-.23-8,0-12-.07-3.81-.06-4.74-1-4.76-4.71,0-1.22.11-2.45,0-3.65-.48-4.13.78-5.6,5.6-5.72,4.12-.11,8.25,0,12.38-.05,1.47,0,2.23.29,2.22,2s-.6,2.09-2.16,2.07c-3.79-.06-7.58,0-11.37.07-.68,1.8.54,3.58,0,5.48-.29.94,1.08.72,1.77.76C247.61,201.4,251.51,200.9,255.38,201.49Z"/><path class="cls-1" d="M208.41,172.86h7.71c.82,0,1.8.12,1.8,1s-1,1-1.81,1c-3.79,0-7.59,0-11.39,0-1.06,0-2.37-.3-2.47,1.43-.11,1.93,1.26,1.76,2.49,1.75a99.48,99.48,0,0,0,10.37-.2c1.89-.21,2.91.14,3,1.92.12,1.94,1.28,4.8-1.77,5.24-5.41.77-10.91.39-16.37.14-.59,0-1.47-.25-1.42-1.1s.94-1.15,1.73-1.16c3.91,0,7.82,0,11.73-.05,1.05,0,2.43.3,2.32-1.5-.09-1.57-1.36-1.18-2.27-1.19-3.69,0-7.38-.12-11.06.06-2.38.11-2.92-1-2.71-3s-.88-4.56,2.73-4.45C203.5,172.92,206,172.86,208.41,172.86Z"/><path class="cls-1" d="M165,185.4h-1c-11.36,0-8.88.32-9.19-10,0-1.6.59-2.53,2.32-2.53h15.4c.8,0,1.86,0,1.88.95,0,1.22-1.16,1.1-2,1.1-3.79,0-7.59,0-11.38,0-1.16,0-2.3-.05-2.28,1.63s1.21,1.56,2.34,1.57c3.79,0,7.58,0,11.38,0,.83,0,2-.13,1.93,1.15-.08.93-1.13.89-1.91.9-3.8,0-7.59,0-11.39,0-.92,0-2.18-.36-2.28,1.19-.12,1.78,1.26,1.49,2.32,1.5,3.46,0,6.92,0,10.38,0,1.12,0,3-.45,2.89,1.23-.06,1.43-1.85,1.19-3,1.21C169.19,185.43,167.07,185.4,165,185.4Z"/><path class="cls-1" d="M142.82,185.4h-.33c-11.44-.19-9.05,1.66-9.34-10.29,0-1.52.54-2.26,2.13-2.26,5.13,0,10.26,0,15.4,0,.78,0,1.8,0,1.83,1,0,1.33-1.19,1.06-2,1.07-3.68,0-7.37.14-11,0-2.19-.09-3.11.61-2.84,2.82a12.45,12.45,0,0,1,0,2.66c-.16,1.77.39,2.68,2.39,2.59,2.79-.13,5.58,0,8.37,0,1,0,1.82-.11,1.81-1.39s-.92-1.31-1.85-1.32c-1.78,0-3.57,0-5.35,0-.59,0-1.16-.23-1.24-.88-.12-.91.59-1.07,1.28-1.12,3-.21,6,.29,9-.44a1.58,1.58,0,0,1,1.38.68,9.28,9.28,0,0,1,0,5.87c-.52,1.38-2.27,1.1-3.59,1.11C146.84,185.42,144.83,185.4,142.82,185.4Z"/><path class="cls-1" d="M98.38,172.85c2.23,0,4.46.12,6.68,0,2.37-.15,3.22,1,3.19,3.14s0,4.43,0,6.64c0,1.33-.36,2.55-1.92,2.62s-2.17-1-1.95-2.41c.36-2.43-1-2.76-3-2.63-1.67.11-3.35.06-5,0-2.38-.07-4.87-.49-4.4,3.32a1.68,1.68,0,0,1-2,1.71,1.71,1.71,0,0,1-1.71-2,4.85,4.85,0,0,0,0-.66C87.81,172.85,87.81,172.85,98.38,172.85Z"/><path class="cls-1" d="M166.69,205c-2.14.5-3-.55-2.72-2.87a21.45,21.45,0,0,0,0-2.66c0-4.57,0-4.61-4.42-4.81-1.38-.06-2.32-.17-2.33-2s.86-1.95,2.28-1.94c5.34,0,10.69,0,16,0,1.18,0,1.9.28,1.88,1.65s-.2,2-1.73,2.25c-1.81.26-4.35-1.23-5.29,1.15-.65,1.64-.17,3.71-.18,5.6C170.22,205,170.22,205,166.69,205Z"/><path class="cls-1" d="M190.53,180.35c1.62,1,2.49,1.47,3.27,2s2.18,1,1.45,2.16c-.53.85-1.9.56-2.8.1a38,38,0,0,1-5.19-3,8.25,8.25,0,0,0-5.3-1.51c-1.63,0-2.53.4-2.39,2.23.09,1.19.23,2.57-1.67,2.58-2.16,0-1.76-1.56-1.78-2.82,0-2.22.09-4.44,0-6.65s.78-2.71,2.76-2.67c4.68.09,9.36.12,14,0,3.56-.08,2.63,2.42,2.83,4.37.23,2.23-.47,3.42-2.93,3A14.57,14.57,0,0,0,190.53,180.35Z"/><path class="cls-1" d="M114.37,177c0,2.25-.05,4,0,5.72.05,1.4-.32,2.51-1.91,2.54s-2.06-1-2-2.42c.06-2.44,0-4.89,0-7.33,0-2.62,1.33-3.16,3.45-1.92,3.46,2,6.9,4.1,10.25,6.29,1.78,1.17,2.55,1.13,2.42-1.21-.08-1.22,0-2.44,0-3.67s.65-2.09,2-2.05a1.72,1.72,0,0,1,1.84,1.91c0,2.77.16,5.56,0,8.33s-2.31,2.06-3.69,1.31c-3.33-1.8-6.49-3.91-9.71-5.89Z"/><path class="cls-1" d="M175.89,152.25c.25.56,1.16,1,.66,1.66s-1,.06-1.44-.25c-4.07-2.75-8.59-3.4-13.38-2.91-2.51.26-4.8.89-6.48,2.92-.43.52-.95,1.16-1.2-.13l0,.06c3.4-4.63,9.07-6.33,15.3-4.56,1.16.33,2.29.78,3.44,1.18S175.38,150.75,175.89,152.25Z"/><path class="cls-1" d="M173.44,149.6c-3.33-2.2-7-2.52-10.89-2.21-.58.05-1.44.43-1.66-.5s.58-1.06,1.21-1.27c4.18-1.4,12,1,14.71,4.4.51.66.91,1.29.21,2A6.15,6.15,0,0,1,173.44,149.6Z"/><path class="cls-2" d="M242,196.34c-.37,2.75.87,3.68,3.55,3.37a25.09,25.09,0,0,1,5.27,0c2.75.27,4-.66,3.21-3.49,1.38,3.29,1,4-2.21,4a51.2,51.2,0,0,0-9,.58c3,0,6.09-.05,9.13,0,1.16,0,2.47-.49,3.44.63-3.45,0-6.92-.26-10.34,0-3.18.26-4.28-.92-3.76-3.89.16-.9-.54-2,.7-2.64C242,195.43,242,195.89,242,196.34Z"/><path class="cls-2" d="M173.44,149.6a9.53,9.53,0,0,1,3.57,2.46l-1.12.19-3.14-2Z"/><path class="cls-2" d="M203.9,199.76c-2.05-2.45-4.69-1.38-7-1.63-1,1.24,1.46,2.16.22,2.92a4.5,4.5,0,0,1-3.22,0c-1.43-.44-.68-1.88-.86-2.89-.48-2.72.59-3.88,3.42-3.47a24.63,24.63,0,0,0,3.33,0C204.37,194.77,204.37,194.77,203.9,199.76Z"/><path class="cls-2" d="M151.49,199.49c-2.16,0-3.26.08-4.33,0a4.64,4.64,0,0,0-3,1c1.13-2,1.66-4.67,4-5.15C149.25,195.06,149.75,197.6,151.49,199.49Z"/><path class="cls-2" d="M98.3,174.94c1.46,0,2.91,0,4.36,0,1.08,0,1.67.38,1.68,1.53s-.43,1.65-1.56,1.65c-3,0-6,0-9.06,0-1.14,0-1.57-.61-1.54-1.69s.74-1.49,1.76-1.48Z"/><path class="cls-2" d="M185.74,178.19c-1.46,0-2.91,0-4.36,0-1.21,0-1.88-.44-1.84-1.75,0-1.12.59-1.58,1.67-1.58h9.38c1.08,0,1.64.45,1.67,1.58.05,1.31-.62,1.77-1.84,1.75C188.86,178.17,187.3,178.19,185.74,178.19Z"/><path class="cls-2" d="M186.05,175.53c1.22,0,2.44,0,3.66,0,.75,0,1.71-.06,1.68,1.06,0,.84-.81.91-1.49.91-2.66,0-5.31,0-8,0-.67,0-1.47,0-1.52-.89-.06-1.14.91-1.05,1.66-1.07C183.39,175.51,184.72,175.54,186.05,175.53Z"/></svg>