<svg id="Calque_1" data-name="Calque 1" xmlns="http://www.w3.org/2000/svg" viewBox="0 0 345 345"><defs><style>.cls-1{fill:#1d1c3d;}.cls-2{fill:#fff;}.cls-3,.cls-4{fill:#cf2b66;}.cls-3{stroke:#cf2b66;stroke-miterlimit:10;stroke-width:0.5px;}</style></defs><rect class="cls-1" y="-1.46" width="345" height="348.77"/><g id="Logo_Kelcible" data-name="Logo Kelcible"><path class="cls-2" d="M137.6,154.69v16.58l9.15-8.49h2.55v.08l-9.82,9.08,11,10.13v.12H148l-10.41-9.51v9.51h-1.89v-27.5Z"/><path class="cls-2" d="M151.83,172.49a9.75,9.75,0,0,1,9.85-10c5.46,0,10.33,3.34,9.59,10.92H153.79a7.62,7.62,0,0,0,7.89,7.18c2.56,0,5.54-1,7-2.94l1.38,1.1a10.67,10.67,0,0,1-8.37,3.73A9.51,9.51,0,0,1,151.83,172.49Zm17.71-.79c0-4.79-3.18-7.46-7.86-7.46a7.75,7.75,0,0,0-7.89,7.46Z"/><path class="cls-2" d="M178.19,154.69v27.5h-1.92v-27.5Z"/><path class="cls-3" d="M199.48,179.48a9.93,9.93,0,0,1-7.07,2.9c-5.46,0-10-3.77-10-9.89s4.37-9.9,10-9.9a10.1,10.1,0,0,1,7.07,2.9l-1.26,1.22a8.22,8.22,0,0,0-5.81-2.31c-4.4,0-8.09,2.86-8.09,8.09s3.69,8.08,8.09,8.08a8.25,8.25,0,0,0,5.78-2.39Z"/><path class="cls-2" d="M206,156.46a1.55,1.55,0,0,1-3.1,0A1.55,1.55,0,0,1,206,156.46Zm-2.55,6.24v19.49h1.92V162.7Z"/><path class="cls-2" d="M212.73,154.69V167c1.57-3.14,4.71-4.55,8.05-4.55,5.42,0,9.74,3.61,9.74,10s-4.28,10-9.7,10a9.13,9.13,0,0,1-8.09-4.6v4.29h-1.89v-27.5Zm0,17.75c0,4.84,3.38,8.18,7.93,8.18,4.36,0,7.94-2.75,7.94-8.13s-3.58-8.17-7.94-8.17A7.76,7.76,0,0,0,212.77,172.44Z"/><path class="cls-2" d="M237.17,154.69v27.5h-1.92v-27.5Z"/><path class="cls-2" d="M241.46,172.49a9.75,9.75,0,0,1,9.85-10c5.46,0,10.33,3.34,9.59,10.92H243.42a7.62,7.62,0,0,0,7.89,7.18c2.56,0,5.54-1,7-2.94l1.38,1.1a10.67,10.67,0,0,1-8.37,3.73A9.51,9.51,0,0,1,241.46,172.49Zm17.71-.79c0-4.79-3.18-7.46-7.86-7.46a7.75,7.75,0,0,0-7.89,7.46Z"/><path class="cls-2" d="M138.81,188.64a1.88,1.88,0,0,0-1.76-.79c-.68,0-1.77.25-1.77,1.18,0,.74.8.92,1.78,1.1,1.13.22,2.29.42,2.29,1.67s-1.33,1.63-2.3,1.63a2.62,2.62,0,0,1-2.39-1.26l.4-.2a2.28,2.28,0,0,0,2,1.06c.71,0,1.85-.2,1.85-1.24,0-.87-1-1.06-1.91-1.24s-2.15-.43-2.15-1.5c0-1.23,1.25-1.61,2.21-1.61a2.24,2.24,0,0,1,2.13,1Z"/><path class="cls-2" d="M144.57,187.93h-2.1v-.4h4.66v.4H145v5.41h-.45Z"/><path class="cls-2" d="M155.24,193.34h-.59l-2-2.2h-1.58v2.2h-.45v-5.82h2.56a1.8,1.8,0,0,1,1.91,1.81,1.71,1.71,0,0,1-1.89,1.78Zm-4.19-2.63h2.06a1.3,1.3,0,0,0,1.47-1.39,1.34,1.34,0,0,0-1.42-1.39h-2.11Z"/><path class="cls-2" d="M163.23,193.34l-.64-1.43h-3.47l-.64,1.43H158l2.61-5.82h.5l2.61,5.82Zm-.81-1.85L160.86,188l-1.57,3.54Z"/><path class="cls-2" d="M167.78,187.93h-2.1v-.4h4.65v.4h-2.1v5.41h-.45Z"/><path class="cls-2" d="M174.24,190.21h3.41v.4h-3.41v2.3h3.68v.43H173.8v-5.82h4v.42h-3.58Zm1.7-3.34.76-1h-.54l-.62,1v0Z"/><path class="cls-2" d="M186.1,188.59a2.68,2.68,0,0,0-1.87-.75,2.46,2.46,0,0,0-2.57,2.6,2.42,2.42,0,0,0,2.57,2.55,2.6,2.6,0,0,0,1.77-.67v-1.63h-2v-.39h2.46v2.18a3,3,0,0,1-2.2.94,3,3,0,1,1,0-6,3,3,0,0,1,2.13.87Z"/><path class="cls-2" d="M190.26,193.34v-5.82h.44v5.82Z"/><path class="cls-2" d="M195,190.21h3.41v.4H195v2.3h3.68v.43h-4.12v-5.82h4v.42H195Z"/><path class="cls-2" d="M212.1,190.36a2.8,2.8,0,0,1-3,3h-2v-5.82h2A2.8,2.8,0,0,1,212.1,190.36Zm-4.48-2.42v5h1.52a2.49,2.49,0,1,0,0-5Z"/><path class="cls-2" d="M215.83,193.34v-5.82h.44v5.82Z"/><path class="cls-2" d="M224.74,188.59a2.7,2.7,0,0,0-1.87-.75,2.45,2.45,0,0,0-2.57,2.6,2.42,2.42,0,0,0,2.57,2.55,2.61,2.61,0,0,0,1.77-.67v-1.63h-2v-.39h2.46v2.18a3.06,3.06,0,0,1-2.2.94,3,3,0,1,1,0-6,3,3,0,0,1,2.13.87Z"/><path class="cls-2" d="M228.9,193.34v-5.82h.44v5.82Z"/><path class="cls-2" d="M235.15,187.93h-2.1v-.4h4.66v.4H235.6v5.41h-.45Z"/><path class="cls-2" d="M245.81,193.34l-.65-1.43h-3.47l-.63,1.43h-.49l2.62-5.82h.49l2.61,5.82Zm-.82-1.85L243.43,188l-1.57,3.54Z"/><path class="cls-2" d="M250.18,187.52v5.4h3.28v.42h-3.73v-5.82Z"/><path class="cls-2" d="M257.37,190.21h3.41v.4h-3.41v2.3H261v.43h-4.11v-5.82h4v.42h-3.57Z"/><polygon class="cls-4" points="83.96 147.86 83.96 172.2 100.6 157.47 83.96 147.86"/><polygon class="cls-2" points="83.96 197.14 100.6 187.53 83.96 172.8 83.96 197.14"/><polygon class="cls-2" points="86.83 172.5 102.55 186.41 105.29 184.82 112 180.95 113.06 180.34 114.13 179.72 126.63 172.5 126.62 172.49 86.84 172.49 86.83 172.5"/><polygon class="cls-4" points="113.06 164.66 112 164.05 105.29 160.18 102.55 158.59 86.84 172.49 126.62 172.49 114.13 165.28 113.06 164.66"/></g></svg>